M48
;GenerationSoftware,Autodesk,EAGLE,9.6.2*%
;CreationDate,2022-02-25T12:38:32Z*%
FMAT,2
ICI,OFF
METRIC,TZ,000.000
T10C0.350
T9C0.700
T8C0.780
T7C0.800
T6C0.813
T5C1.016
T4C1.100
T3C1.600
T2C1.800
T1C2.800
%
G90
M71
T1
X76400Y3600
X76400Y46400
X3600Y3600
X3600Y46400
T2
X9770Y35790
T3
X5270Y35790
T4
X4400Y14800
X4400Y9800
X4400Y25300
X4400Y20300
T5
X21790Y2030
X26870Y4570
X24330Y2030
X26870Y2030
X29410Y2030
X21790Y4570
X24330Y4570
X29410Y4570
T6
X37400Y3270
X12390Y26290
X12390Y23750
X12390Y11050
X12390Y8510
X12390Y21210
X12390Y18670
X12390Y13590
X12390Y16130
X20010Y8510
X20010Y11050
X20010Y13590
X20010Y18670
X20010Y21210
X20010Y23750
X20010Y26290
X20010Y16130
X39940Y3270
X34860Y3270
T7
X59670Y31880
X62210Y31880
X64750Y31880
X67290Y31880
X69830Y31880
X69830Y47120
X67290Y47120
X64750Y47120
X62210Y47120
X59670Y47120
T8
X57750Y14530
X60290Y14530
X62830Y14530
X65370Y14530
X67910Y14530
X70450Y14530
X72990Y14530
X72990Y22470
X70450Y22470
X67910Y22470
X65370Y22470
X62830Y22470
X60290Y22470
X57750Y22470
X55210Y22470
X55210Y14530
T9
X36600Y40650
X36600Y38150
X27734Y22334
X31326Y25926
X22500Y40650
X22500Y38150
T10
X39500Y17300
X29894Y8694
X38500Y16500
X31000Y8300
X28900Y14900
X43180Y48260
X63300Y8700
X35800Y12900
X33000Y10000
X46600Y15700
X37800Y15700
X77470Y25400
X73660Y25400
X77470Y21590
X77470Y17780
X77470Y13970
X77470Y10160
X55880Y40640
X55880Y36830
X55880Y33020
X46990Y33020
X46990Y29210
X39370Y33020
X66500Y8700
X35560Y33020
X31750Y33020
X27940Y33020
X24130Y33020
X46990Y48260
X46990Y44450
X43180Y44450
X39370Y48260
X39370Y44450
X35560Y48260
X35560Y44450
X24130Y48260
X20320Y48260
X16510Y48260
X20320Y44450
X24130Y44450
X43180Y33020
X43180Y29210
X43180Y25400
X43180Y17780
X46990Y17780
X22860Y19050
X22860Y15240
X39370Y29210
X35560Y29210
X31750Y29210
X55880Y44450
X46990Y36830
X43180Y36830
X20320Y33020
X20320Y36830
X16510Y36830
X27940Y36830
X31750Y36830
X39370Y36830
X55880Y48260
X24130Y36830
X50800Y2540
X46990Y21590
X73660Y10160
X69850Y2540
X66040Y2540
X62230Y2540
X58420Y2540
X45720Y2540
X48260Y5080
X73660Y29210
X41910Y2540
X38100Y5080
X38100Y8890
X67800Y30258
X69300Y29600
X48300Y22600
X41800Y22600
X34200Y13500
X32117Y8917
M30